<?xml version="1.0" encoding="UTF-8"?>
<svg width="48px" height="48px" viewBox="0 0 48 48" version="1.1" xmlns="http://www.w3.org/2000/svg" xmlns:xlink="http://www.w3.org/1999/xlink">
    <title>Path</title>
    <g id="Page-1" stroke="none" stroke-width="1" fill="none" fill-rule="evenodd">
        <g id="close" fill="#FFFFFF" fill-rule="nonzero">
            <path d="M28.2,24 L47.1,5.1 C48.3,3.9 48.3,2 47.1,0.9 C45.9,-0.3 44,-0.3 42.9,0.9 L24,19.7 L5.1,0.9 C3.9,-0.3 2,-0.3 0.9,0.9 C-0.3,2.1 -0.3,4 0.9,5.1 L19.8,24 L0.9,42.9 C-0.3,44.1 -0.3,46 0.9,47.1 C1.5,47.7 2.2,48 3,48 C3.8,48 4.5,47.7 5.1,47.1 L24,28.2 L42.9,47.1 C43.5,47.7 44.3,48 45,48 C45.7,48 46.5,47.7 47.1,47.1 C48.3,45.9 48.3,44 47.1,42.9 L28.2,24 Z" id="Path"></path>
        </g>
    </g>
</svg>